# xmcd
#
# Track frame offsets:
#	150
#	19583
#	38611
#	60583
#	88722
#	111761
#	145931
#	164473
#	188683
#	206322
#	225999
#	239777
#	257168
#	274450
#	295507
#
# Disc length: 4366 seconds
#
# Revision: 1
# Processed by: cddbd v1.5.2PL0 Copyright (c) Steve Scherf et al.
# Submitted via: audiograbber 1.83.01
#
DISCID=cd110c0f
DTITLE=Alvin Jett - How Long
DYEAR=2008
DGENRE=Blues
TTITLE0=Boogie To the Blues
TTITLE1=Ain't Been The Same
TTITLE2=How Long
TTITLE3=Angels Sing the Blues
TTITLE4=You're Blues Ain't Like Me
TTITLE5=My Baby's Place
TTITLE6=Coming My Way
TTITLE7=What Must A Player Do?
TTITLE8=Bluesman
TTITLE9=China Doll
TTITLE10=Borrowed Time
TTITLE11=7-47 Central Time
TTITLE12=Milk And Cookies
TTITLE13=Best Friend You Ever Had
TTITLE14=Down In The Delta
EXTD=Blues Boulevard Records, Belgium
EXTT0=
EXTT1=
EXTT2=
EXTT3=
EXTT4=
EXTT5=
EXTT6=
EXTT7=
EXTT8=
EXTT9=
EXTT10=
EXTT11=
EXTT12=
EXTT13=
EXTT14=
PLAYORDER=
